<?xml version="1.0" encoding="utf-8"?>
<!-- Generator: Adobe Illustrator 22.1.0, SVG Export Plug-In . SVG Version: 6.00 Build 0)  -->
<svg version="1.1" id="Camada_1" xmlns="http://www.w3.org/2000/svg" xmlns:xlink="http://www.w3.org/1999/xlink" x="0px" y="0px"
	 viewBox="0 0 566.9 566.9" style="enable-background:new 0 0 566.9 566.9;" xml:space="preserve">
<style type="text/css">
	.st0{fill:#FFFFFF;}
</style>
<g>
	<g>
		<path class="st0" d="M379.4,125.1l-103.2,0.2l23,48.8l71.3-0.1c33.7-0.2,50.9,20.7,51.4,62.9c-0.1,42.9-14.1,64.3-42.2,64.4
			l-45.2,0.1l-0.4-55.1l-55.8,0.1l0,3.5c7.6,8.9,12,20,13.1,33.5l0,13.7c-0.7,14-4.9,25.3-12.7,34l0.1,19.2l110.2-0.2
			c61.5-5.5,92.1-43,92-112.6C480.7,168.1,446.9,130.6,379.4,125.1z"/>
	</g>
	<g>
		<path class="st0" d="M256.2,233.6c21.9-8.7,32.9-23.4,33.2-43.9c0.3-20.5-5.2-36.4-16.4-47.5c-11.2-11.1-29-16.9-53.4-17.3
			l-134.9,0.2l0.1,49.7l126.4-0.2c15.1,0,22.8,6.2,22.9,18.7c0.1,12.5-7.4,18.8-22.6,18.8l-74,0.1l30.9,48.3l3.5,0l38.5-0.1
			c13.2,0,19.8,6.6,19.9,20c0.1,13.3-6.5,20-19.9,20.1l-100.7,0.2l-24.6,49.5l153.1-0.3c17.9-3.1,31.3-9.5,40.1-19.4l-0.4-81.3
			C272.4,242.8,265.2,237.6,256.2,233.6z"/>
	</g>
	<path class="st0" d="M316.8,365c-0.8,0.8-1.2,1.9-1.2,3v68.6c0,1.2,0.4,2.2,1.2,3c0.8,0.9,1.8,1.3,3,1.3c1.2,0,2.2-0.5,3-1.3
		c0.8-0.8,1.2-1.9,1.2-3V368c0-1.2-0.4-2.2-1.2-3C321.2,363.3,318.4,363.3,316.8,365z"/>
	<path class="st0" d="M395.4,365l-28.9,31.1l-29-31.1c-1.6-1.6-4.4-1.6-5.9,0.1c-0.8,0.8-1.2,1.9-1.2,3v68.6c0,1.2,0.4,2.2,1.2,3
		c1.6,1.7,4.4,1.7,6,0c0.8-0.8,1.2-1.9,1.2-3v-58l24.4,26.3c0.1,0.2,0.3,0.3,0.4,0.5c1.4,1.5,3.8,1.7,5.4,0.5l25.3-27.1v57.9
		c0,1.2,0.4,2.2,1.2,3c0.8,0.9,1.8,1.3,3,1.3c1.2,0,2.2-0.5,3-1.3c0.8-0.8,1.2-1.9,1.2-3V368c0-1.2-0.4-2.2-1.2-3
		C399.7,363.3,396.9,363.3,395.4,365z"/>
	<path class="st0" d="M476.9,406.7c1.2,0,2.2-0.5,3-1.3c0.8-0.8,1.2-1.9,1.2-3c0-1.2-0.4-2.2-1.2-3c-0.8-0.9-1.8-1.3-3-1.3h-59.7
		v-25.7h59.7c1.2,0,2.2-0.5,3-1.3c0.8-0.8,1.2-1.9,1.2-3c0-1.2-0.4-2.2-1.2-3c-0.8-0.9-1.8-1.3-3-1.3h-63.8c-1.2,0-2.2,0.5-3,1.3
		c-0.8,0.8-1.2,1.9-1.2,3v68.6c0,1.2,0.4,2.2,1.2,3c0.8,0.9,1.8,1.3,3,1.3h63.8c1.2,0,2.2-0.5,3-1.3c0.8-0.8,1.2-1.9,1.2-3
		c0-1.2-0.4-2.2-1.2-3c-0.8-0.9-1.8-1.3-3-1.3h-59.7v-25.7H476.9z"/>
	<path class="st0" d="M305.7,365c-0.8-0.9-1.8-1.3-3-1.3h-33.5h-30.3H85.9c0,0,0,0,0,0l-0.4-0.1v8.8h0.4H111h122.2h5.7h2.6h25.2
		v64.3c0,1.2,0.4,2.2,1.2,3c0.8,0.9,1.8,1.3,3,1.3c1.2,0,2.2-0.5,3-1.3c0.8-0.8,1.2-1.9,1.2-3v-64.3h27.8c1.2,0,2.2-0.5,3-1.3
		c0.8-0.8,1.2-1.9,1.2-3C306.9,366.9,306.5,365.8,305.7,365z"/>
	<path class="st0" d="M257,381.9c-0.8-0.9-1.8-1.3-3-1.3h-94.2h-1.1H85.9c0,0,0,0,0,0l-0.4-0.1v8.8h0.4H111h47.7h1.1H218h8.3h27.8
		c1.2,0,2.2-0.5,3-1.3c0.8-0.8,1.2-1.9,1.2-3C258.2,383.8,257.8,382.7,257,381.9z"/>
	<path class="st0" d="M257,399.2c-0.8-0.9-1.8-1.3-3-1.3h-94.2h-1.1H85.9c0,0,0,0,0,0l-0.4-0.1v8.8h0.4H111h47.7h1.1H218h8.3h27.8
		c1.2,0,2.2-0.5,3-1.3c0.8-0.8,1.2-1.9,1.2-3C258.2,401.1,257.8,400,257,399.2z"/>
	<path class="st0" d="M257,416.4c-0.8-0.9-1.8-1.3-3-1.3h-94.2h-1.1H85.9c0,0,0,0,0,0l-0.4-0.1v8.8h0.4H111h47.7h1.1H218h8.3h27.8
		c1.2,0,2.2-0.5,3-1.3c0.8-0.8,1.2-1.9,1.2-3C258.2,418.2,257.8,417.2,257,416.4z"/>
	<path class="st0" d="M257,433.6c-0.8-0.9-1.8-1.3-3-1.3h-94.2h-1.1H85.9c0,0,0,0,0,0l-0.4-0.1v8.8h0.4H111h47.7h1.1H218h8.3h27.8
		c1.2,0,2.2-0.5,3-1.3c0.8-0.8,1.2-1.9,1.2-3C258.2,435.5,257.8,434.5,257,433.6z"/>
</g>
</svg>
